<mxfile host="app.diagrams.net" agent="Mozilla/5.0 (Windows NT 10.0; Win64; x64) AppleWebKit/537.36 (KHTML, like Gecko) Chrome/127.0.0.0 Safari/537.36 Edg/127.0.0.0" version="24.7.6">
  <diagram name="Página-1" id="UbK49FaOcOjCanvYjaOp">
    <mxGraphModel dx="792" dy="452" grid="1" gridSize="10" guides="1" tooltips="1" connect="1" arrows="1" fold="1" page="1" pageScale="1" pageWidth="827" pageHeight="1169" math="0" shadow="0">
      <root>
        <mxCell id="0" />
        <mxCell id="1" parent="0" />
        <mxCell id="yscxBIdip1I-6Eay3wVy-1" value="País" style="rounded=0;whiteSpace=wrap;html=1;" vertex="1" parent="1">
          <mxGeometry x="130" y="150" width="60" height="20" as="geometry" />
        </mxCell>
        <mxCell id="yscxBIdip1I-6Eay3wVy-2" value="JOlimpicos" style="rounded=0;whiteSpace=wrap;html=1;" vertex="1" parent="1">
          <mxGeometry x="430" y="150" width="74" height="20" as="geometry" />
        </mxCell>
        <mxCell id="yscxBIdip1I-6Eay3wVy-4" value="N&lt;div&gt;&lt;br&gt;&lt;/div&gt;" style="text;html=1;align=center;verticalAlign=middle;resizable=0;points=[];autosize=1;strokeColor=none;fillColor=none;" vertex="1" parent="1">
          <mxGeometry x="205" y="135" width="30" height="40" as="geometry" />
        </mxCell>
        <mxCell id="yscxBIdip1I-6Eay3wVy-5" value="M" style="text;html=1;align=center;verticalAlign=middle;resizable=0;points=[];autosize=1;strokeColor=none;fillColor=none;" vertex="1" parent="1">
          <mxGeometry x="384" y="135" width="30" height="30" as="geometry" />
        </mxCell>
        <mxCell id="yscxBIdip1I-6Eay3wVy-6" value="" style="endArrow=none;html=1;rounded=0;entryX=0;entryY=0.5;entryDx=0;entryDy=0;" edge="1" parent="1" source="yscxBIdip1I-6Eay3wVy-7" target="yscxBIdip1I-6Eay3wVy-2">
          <mxGeometry width="50" height="50" relative="1" as="geometry">
            <mxPoint x="240" y="200" as="sourcePoint" />
            <mxPoint x="440" y="280" as="targetPoint" />
          </mxGeometry>
        </mxCell>
        <mxCell id="yscxBIdip1I-6Eay3wVy-8" value="" style="endArrow=none;html=1;rounded=0;entryX=0;entryY=0.5;entryDx=0;entryDy=0;" edge="1" parent="1" source="yscxBIdip1I-6Eay3wVy-1" target="yscxBIdip1I-6Eay3wVy-7">
          <mxGeometry width="50" height="50" relative="1" as="geometry">
            <mxPoint x="210" y="160" as="sourcePoint" />
            <mxPoint x="414" y="160" as="targetPoint" />
          </mxGeometry>
        </mxCell>
        <mxCell id="yscxBIdip1I-6Eay3wVy-7" value="Participa" style="rhombus;whiteSpace=wrap;html=1;" vertex="1" parent="1">
          <mxGeometry x="270" y="135" width="90" height="50" as="geometry" />
        </mxCell>
        <mxCell id="yscxBIdip1I-6Eay3wVy-10" value="continente" style="text;html=1;align=center;verticalAlign=middle;resizable=0;points=[];autosize=1;strokeColor=none;fillColor=none;" vertex="1" parent="1">
          <mxGeometry x="120" y="230" width="80" height="30" as="geometry" />
        </mxCell>
        <mxCell id="yscxBIdip1I-6Eay3wVy-11" value="populacao" style="text;html=1;align=center;verticalAlign=middle;resizable=0;points=[];autosize=1;strokeColor=none;fillColor=none;" vertex="1" parent="1">
          <mxGeometry x="120" y="250" width="80" height="30" as="geometry" />
        </mxCell>
        <mxCell id="yscxBIdip1I-6Eay3wVy-12" value="nome" style="text;html=1;align=center;verticalAlign=middle;resizable=0;points=[];autosize=1;strokeColor=none;fillColor=none;" vertex="1" parent="1">
          <mxGeometry x="120" y="210" width="50" height="30" as="geometry" />
        </mxCell>
        <mxCell id="yscxBIdip1I-6Eay3wVy-13" value="&lt;u&gt;id&lt;/u&gt;" style="text;html=1;align=center;verticalAlign=middle;resizable=0;points=[];autosize=1;strokeColor=none;fillColor=none;" vertex="1" parent="1">
          <mxGeometry x="120" y="190" width="30" height="30" as="geometry" />
        </mxCell>
        <mxCell id="yscxBIdip1I-6Eay3wVy-14" value="&lt;u&gt;ano&lt;/u&gt;" style="text;html=1;align=center;verticalAlign=middle;resizable=0;points=[];autosize=1;strokeColor=none;fillColor=none;" vertex="1" parent="1">
          <mxGeometry x="410" y="190" width="40" height="30" as="geometry" />
        </mxCell>
        <mxCell id="yscxBIdip1I-6Eay3wVy-15" value="sede" style="text;html=1;align=center;verticalAlign=middle;resizable=0;points=[];autosize=1;strokeColor=none;fillColor=none;" vertex="1" parent="1">
          <mxGeometry x="405" y="220" width="50" height="30" as="geometry" />
        </mxCell>
        <mxCell id="yscxBIdip1I-6Eay3wVy-16" value="" style="endArrow=none;html=1;rounded=0;entryX=0;entryY=0.5;entryDx=0;entryDy=0;" edge="1" parent="1" target="yscxBIdip1I-6Eay3wVy-1">
          <mxGeometry width="50" height="50" relative="1" as="geometry">
            <mxPoint x="60" y="160" as="sourcePoint" />
            <mxPoint x="300" y="280" as="targetPoint" />
          </mxGeometry>
        </mxCell>
        <mxCell id="yscxBIdip1I-6Eay3wVy-17" value="" style="endArrow=none;html=1;rounded=0;" edge="1" parent="1">
          <mxGeometry width="50" height="50" relative="1" as="geometry">
            <mxPoint x="60" y="310" as="sourcePoint" />
            <mxPoint x="60" y="160" as="targetPoint" />
          </mxGeometry>
        </mxCell>
        <mxCell id="yscxBIdip1I-6Eay3wVy-18" value="" style="endArrow=none;html=1;rounded=0;" edge="1" parent="1">
          <mxGeometry width="50" height="50" relative="1" as="geometry">
            <mxPoint x="60" y="310" as="sourcePoint" />
            <mxPoint x="160" y="310" as="targetPoint" />
          </mxGeometry>
        </mxCell>
        <mxCell id="yscxBIdip1I-6Eay3wVy-19" value="Possui" style="rhombus;whiteSpace=wrap;html=1;" vertex="1" parent="1">
          <mxGeometry x="160" y="290" width="75" height="40" as="geometry" />
        </mxCell>
        <mxCell id="yscxBIdip1I-6Eay3wVy-20" value="" style="endArrow=none;html=1;rounded=0;exitX=1;exitY=0.5;exitDx=0;exitDy=0;" edge="1" parent="1" source="yscxBIdip1I-6Eay3wVy-19">
          <mxGeometry width="50" height="50" relative="1" as="geometry">
            <mxPoint x="250" y="330" as="sourcePoint" />
            <mxPoint x="290" y="310" as="targetPoint" />
          </mxGeometry>
        </mxCell>
        <mxCell id="yscxBIdip1I-6Eay3wVy-22" value="Atleta" style="rounded=0;whiteSpace=wrap;html=1;" vertex="1" parent="1">
          <mxGeometry x="290" y="300" width="55" height="20" as="geometry" />
        </mxCell>
        <mxCell id="yscxBIdip1I-6Eay3wVy-23" value="" style="endArrow=none;html=1;rounded=0;" edge="1" parent="1" source="yscxBIdip1I-6Eay3wVy-25">
          <mxGeometry width="50" height="50" relative="1" as="geometry">
            <mxPoint x="420" y="400" as="sourcePoint" />
            <mxPoint x="420" y="310" as="targetPoint" />
          </mxGeometry>
        </mxCell>
        <mxCell id="yscxBIdip1I-6Eay3wVy-24" value="" style="endArrow=none;html=1;rounded=0;entryX=1;entryY=0.5;entryDx=0;entryDy=0;" edge="1" parent="1" target="yscxBIdip1I-6Eay3wVy-22">
          <mxGeometry width="50" height="50" relative="1" as="geometry">
            <mxPoint x="420" y="310" as="sourcePoint" />
            <mxPoint x="400" y="320" as="targetPoint" />
          </mxGeometry>
        </mxCell>
        <mxCell id="yscxBIdip1I-6Eay3wVy-26" value="" style="endArrow=none;html=1;rounded=0;entryX=1;entryY=0.5;entryDx=0;entryDy=0;exitX=0;exitY=0.5;exitDx=0;exitDy=0;" edge="1" parent="1" source="yscxBIdip1I-6Eay3wVy-27" target="yscxBIdip1I-6Eay3wVy-25">
          <mxGeometry width="50" height="50" relative="1" as="geometry">
            <mxPoint x="500" y="310" as="sourcePoint" />
            <mxPoint x="420" y="310" as="targetPoint" />
          </mxGeometry>
        </mxCell>
        <mxCell id="yscxBIdip1I-6Eay3wVy-25" value="Possui" style="rhombus;whiteSpace=wrap;html=1;" vertex="1" parent="1">
          <mxGeometry x="390" y="295" width="60" height="30" as="geometry" />
        </mxCell>
        <mxCell id="yscxBIdip1I-6Eay3wVy-27" value="Patrocinio" style="rounded=0;whiteSpace=wrap;html=1;" vertex="1" parent="1">
          <mxGeometry x="510" y="300" width="70" height="20" as="geometry" />
        </mxCell>
        <mxCell id="yscxBIdip1I-6Eay3wVy-28" value="" style="endArrow=none;html=1;rounded=0;entryX=1;entryY=0.5;entryDx=0;entryDy=0;" edge="1" parent="1">
          <mxGeometry width="50" height="50" relative="1" as="geometry">
            <mxPoint x="550" y="160" as="sourcePoint" />
            <mxPoint x="504" y="159.71" as="targetPoint" />
          </mxGeometry>
        </mxCell>
        <mxCell id="yscxBIdip1I-6Eay3wVy-29" value="Evento" style="rounded=0;whiteSpace=wrap;html=1;" vertex="1" parent="1">
          <mxGeometry x="660" y="150" width="60" height="20" as="geometry" />
        </mxCell>
        <mxCell id="yscxBIdip1I-6Eay3wVy-30" value="Possui" style="rhombus;whiteSpace=wrap;html=1;" vertex="1" parent="1">
          <mxGeometry x="550" y="145" width="60" height="30" as="geometry" />
        </mxCell>
        <mxCell id="yscxBIdip1I-6Eay3wVy-31" value="" style="endArrow=none;html=1;rounded=0;entryX=1;entryY=0.5;entryDx=0;entryDy=0;exitX=0;exitY=0.5;exitDx=0;exitDy=0;" edge="1" parent="1" source="yscxBIdip1I-6Eay3wVy-29">
          <mxGeometry width="50" height="50" relative="1" as="geometry">
            <mxPoint x="656" y="160" as="sourcePoint" />
            <mxPoint x="610" y="159.71" as="targetPoint" />
          </mxGeometry>
        </mxCell>
        <mxCell id="yscxBIdip1I-6Eay3wVy-32" value="1" style="text;html=1;align=center;verticalAlign=middle;resizable=0;points=[];autosize=1;strokeColor=none;fillColor=none;" vertex="1" parent="1">
          <mxGeometry x="495" y="138" width="30" height="30" as="geometry" />
        </mxCell>
        <mxCell id="yscxBIdip1I-6Eay3wVy-33" value="N" style="text;html=1;align=center;verticalAlign=middle;resizable=0;points=[];autosize=1;strokeColor=none;fillColor=none;" vertex="1" parent="1">
          <mxGeometry x="635" y="138" width="30" height="30" as="geometry" />
        </mxCell>
        <mxCell id="yscxBIdip1I-6Eay3wVy-34" value="" style="endArrow=none;html=1;rounded=0;entryX=0.5;entryY=1;entryDx=0;entryDy=0;exitX=0.5;exitY=0;exitDx=0;exitDy=0;" edge="1" parent="1" source="yscxBIdip1I-6Eay3wVy-35" target="yscxBIdip1I-6Eay3wVy-22">
          <mxGeometry width="50" height="50" relative="1" as="geometry">
            <mxPoint x="318" y="370" as="sourcePoint" />
            <mxPoint x="314.85" y="350" as="targetPoint" />
          </mxGeometry>
        </mxCell>
        <mxCell id="yscxBIdip1I-6Eay3wVy-35" value="participa" style="rhombus;whiteSpace=wrap;html=1;" vertex="1" parent="1">
          <mxGeometry x="280" y="370" width="72.5" height="30" as="geometry" />
        </mxCell>
        <mxCell id="yscxBIdip1I-6Eay3wVy-36" value="" style="endArrow=none;html=1;rounded=0;entryX=0.5;entryY=1;entryDx=0;entryDy=0;exitX=0.5;exitY=0;exitDx=0;exitDy=0;" edge="1" parent="1" source="yscxBIdip1I-6Eay3wVy-37">
          <mxGeometry width="50" height="50" relative="1" as="geometry">
            <mxPoint x="314" y="450" as="sourcePoint" />
            <mxPoint x="316" y="400" as="targetPoint" />
          </mxGeometry>
        </mxCell>
        <mxCell id="yscxBIdip1I-6Eay3wVy-37" value="Atleta" style="rounded=0;whiteSpace=wrap;html=1;" vertex="1" parent="1">
          <mxGeometry x="287.5" y="460" width="55" height="20" as="geometry" />
        </mxCell>
        <mxCell id="yscxBIdip1I-6Eay3wVy-38" value="" style="endArrow=none;html=1;rounded=0;exitX=0;exitY=0.5;exitDx=0;exitDy=0;" edge="1" parent="1">
          <mxGeometry width="50" height="50" relative="1" as="geometry">
            <mxPoint x="661" y="163" as="sourcePoint" />
            <mxPoint x="607" y="163" as="targetPoint" />
          </mxGeometry>
        </mxCell>
        <mxCell id="yscxBIdip1I-6Eay3wVy-39" value="" style="endArrow=none;html=1;rounded=0;entryX=1;entryY=0.5;entryDx=0;entryDy=0;" edge="1" parent="1">
          <mxGeometry width="50" height="50" relative="1" as="geometry">
            <mxPoint x="770" y="160" as="sourcePoint" />
            <mxPoint x="720" y="159.71" as="targetPoint" />
          </mxGeometry>
        </mxCell>
        <mxCell id="yscxBIdip1I-6Eay3wVy-40" value="" style="endArrow=none;html=1;rounded=0;" edge="1" parent="1">
          <mxGeometry width="50" height="50" relative="1" as="geometry">
            <mxPoint x="770" y="220" as="sourcePoint" />
            <mxPoint x="770" y="160" as="targetPoint" />
          </mxGeometry>
        </mxCell>
        <mxCell id="yscxBIdip1I-6Eay3wVy-41" value="é transmitido" style="rhombus;whiteSpace=wrap;html=1;" vertex="1" parent="1">
          <mxGeometry x="720" y="220" width="100" height="40" as="geometry" />
        </mxCell>
      </root>
    </mxGraphModel>
  </diagram>
</mxfile>
